<svg width="42" height="44" viewBox="0 0 42 44" fill="none" xmlns="http://www.w3.org/2000/svg">
    <path d="M35.1406 1H6.85938C3.62848 1 1 3.7599 1 7.15234V36.8477C1 40.2401 3.62848 43 6.85938 43H35.1406C38.3715 43 41 40.2401 41 36.8477V7.15234C41 3.7599 38.3715 1 35.1406 1ZM38.6562 36.8477C38.6562 38.8831 37.0791 40.5391 35.1406 40.5391H6.85938C4.9209 40.5391 3.34375 38.8831 3.34375 36.8477V7.15234C3.34375 5.11694 4.9209 3.46094 6.85938 3.46094H35.1406C37.0791 3.46094 38.6562 5.11694 38.6562 7.15234V36.8477Z" fill="#070707" stroke="#070707" stroke-width="0.5" />
    <path d="M8 14.3506V13.6667C8 13.2246 8.1712 12.8007 8.47595 12.4882C8.7807 12.1756 9.19402 12 9.625 12H32.375C32.806 12 33.2193 12.1756 33.524 12.4882C33.8288 12.8007 34 13.2246 34 13.6667V14.3506L21 22.684L8 14.3506ZM21.4306 24.3735C21.3015 24.4562 21.1523 24.5001 21 24.5001C20.8477 24.5001 20.6985 24.4562 20.5694 24.3735L8 16.316V30.3333C8 30.7754 8.1712 31.1993 8.47595 31.5118C8.7807 31.8244 9.19402 32 9.625 32H32.375C32.806 32 33.2193 31.8244 33.524 31.5118C33.8288 31.1993 34 30.7754 34 30.3333V16.316L21.4306 24.3735Z" fill="black" />
</svg>