<svg width="40" height="41" viewBox="0 0 40 41" fill="none" xmlns="http://www.w3.org/2000/svg">
<path d="M11.3564 1.45102H11.8564V1.44141H27.7612C33.7258 1.44141 38.6083 6.4261 38.6083 12.5534V29.3274C38.6083 35.455 33.7255 40.4395 27.7706 40.4395H11.3564C5.39053 40.4395 0.5 35.463 0.5 29.3466V12.563C0.5 6.43625 5.39133 1.45102 11.3564 1.45102ZM2.50833 12.5717V12.5727V29.3563C2.50833 34.3424 6.43588 38.373 11.3564 38.373H27.7706C32.6738 38.373 36.5999 34.3409 36.5999 29.337V12.563C36.5999 7.5588 32.6735 3.52706 27.7612 3.52706H11.3564C6.44367 3.52706 2.51825 7.55913 2.50833 12.5717ZM30.5927 8.64111C30.5927 8.05118 31.0467 7.60309 31.5968 7.60309C32.147 7.60309 32.601 8.05118 32.601 8.64111C32.601 9.23103 32.147 9.67912 31.5968 9.67912C31.0467 9.67912 30.5927 9.23103 30.5927 8.64111ZM9.53438 20.9452C9.53438 15.2895 14.0591 10.6791 19.5635 10.6791C25.068 10.6791 29.5927 15.2895 29.5927 20.9452C29.5927 26.601 25.068 31.2114 19.5635 31.2114C14.0591 31.2114 9.53438 26.601 9.53438 20.9452ZM27.5843 20.9452C27.5843 16.4116 24.0242 12.7552 19.5635 12.7552C15.1029 12.7552 11.5427 16.4116 11.5427 20.9452C11.5427 25.4788 15.1029 29.1353 19.5635 29.1353C24.0242 29.1353 27.5843 25.4788 27.5843 20.9452Z" fill="#070707" stroke="#070707"/>
</svg>
