<svg width="42" height="44" viewBox="0 0 42 44" fill="none" xmlns="http://www.w3.org/2000/svg">
    <path d="M15.149 23.5047L25.9091 33.4981C26.0336 33.6138 26.1844 33.6933 26.3468 33.7289C26.5092 33.7645 26.6775 33.755 26.8354 33.7012C26.9932 33.6475 27.1351 33.5515 27.2472 33.4225C27.3593 33.2935 27.4377 33.1359 27.4747 32.9653L31.9758 12.2361C32.0147 12.0568 32.0066 11.8698 31.9522 11.6951C31.8978 11.5204 31.7993 11.3647 31.6673 11.2447C31.5353 11.1247 31.3748 11.0451 31.203 11.0143C31.0312 10.9835 30.8548 11.0027 30.6926 11.07L8.60728 20.227C8.4148 20.3068 8.25199 20.4502 8.14319 20.6358C8.0344 20.8215 7.98547 21.0393 8.00374 21.2567C8.02202 21.4741 8.1065 21.6794 8.24455 21.8419C8.3826 22.0044 8.5668 22.1153 8.76959 22.1581L15.149 23.5047Z" stroke="black" stroke-width="2.5" stroke-linecap="round" stroke-linejoin="round" />
    <path d="M15.999 22.9167L30.999 11" stroke="black" stroke-width="2.5" stroke-linecap="round" stroke-linejoin="round" />
    <path d="M19.999 28.1871L17.2155 32.3545C17.1158 32.5037 16.9889 32.6053 16.8506 32.6465C16.7124 32.6877 16.5691 32.6665 16.4389 32.5858C16.3087 32.505 16.1974 32.3683 16.1191 32.1928C16.0408 32.0174 15.999 31.8111 15.999 31.6001V22.917" stroke="black" stroke-width="2.5" stroke-linecap="round" stroke-linejoin="round" />
    <path d="M35.1406 1H6.85938C3.62848 1 1 3.7599 1 7.15234V36.8477C1 40.2401 3.62848 43 6.85938 43H35.1406C38.3715 43 41 40.2401 41 36.8477V7.15234C41 3.7599 38.3715 1 35.1406 1ZM38.6562 36.8477C38.6562 38.8831 37.0791 40.5391 35.1406 40.5391H6.85938C4.9209 40.5391 3.34375 38.8831 3.34375 36.8477V7.15234C3.34375 5.11694 4.9209 3.46094 6.85938 3.46094H35.1406C37.0791 3.46094 38.6562 5.11694 38.6562 7.15234V36.8477Z" fill="#070707" stroke="#070707" stroke-width="0.5" />
</svg>