<svg width="40" height="40" viewBox="0 0 40 40" fill="none" xmlns="http://www.w3.org/2000/svg">
    <g clip-path="url(#clip0_51299_8)">
        <path fill-rule="evenodd" clip-rule="evenodd" d="M31.4244 13.0737C31.6002 12.4421 31.4244 12 30.6037 12H27.8682C27.1648 12 26.8521 12.4 26.6763 12.8421C26.6763 12.8421 25.289 16.5053 23.3155 18.8632C22.6707 19.5579 22.3971 19.7684 22.0454 19.7684C21.8696 19.7684 21.6156 19.5579 21.6156 18.9263V13.0737C21.6156 12.3158 21.4202 12 20.834 12H16.5353C16.1054 12 15.8319 12.3579 15.8319 12.6737C15.8319 13.3895 16.8088 13.5579 16.9261 15.5368V19.8737C16.9261 20.8211 16.7698 20.9895 16.418 20.9895C15.4997 20.9895 13.2331 17.3263 11.9044 13.1158C11.6309 12.3368 11.3769 12 10.6734 12H7.9379C7.15632 12 7 12.4 7 12.8421C7 13.6211 7.91836 17.4947 11.3182 22.6105C13.5848 26.1053 16.7698 28 19.6616 28C21.4006 28 21.6156 27.5789 21.6156 26.8632V24.2105C21.6156 23.3684 21.7719 23.2 22.3385 23.2C22.7488 23.2 23.4327 23.4105 25.0545 25.0947C26.9108 27.0947 27.2234 28 28.259 28H30.9945C31.7761 28 32.1669 27.5789 31.9324 26.7579C31.6784 25.9368 30.7991 24.7368 29.6268 23.3053C28.982 22.4842 28.0245 21.6211 27.751 21.1789C27.3406 20.6105 27.4579 20.3579 27.751 19.8737C27.751 19.8526 31.0922 14.8 31.4244 13.0737Z" fill="black" />
        <path d="M34.1406 0H5.85938C2.62848 0 0 2.62848 0 5.85938V34.1406C0 37.3715 2.62848 40 5.85938 40H34.1406C37.3715 40 40 37.3715 40 34.1406V5.85938C40 2.62848 37.3715 0 34.1406 0ZM37.6562 34.1406C37.6562 36.0791 36.0791 37.6562 34.1406 37.6562H5.85938C3.9209 37.6562 2.34375 36.0791 2.34375 34.1406V5.85938C2.34375 3.9209 3.9209 2.34375 5.85938 2.34375H34.1406C36.0791 2.34375 37.6562 3.9209 37.6562 5.85938V34.1406Z" fill="black" stroke="black" stroke-width="0.5" />
    </g>
    <defs>
        <clipPath id="clip0_51299_8">
            <rect width="40" height="40" fill="white" />
        </clipPath>
    </defs>
</svg>